<svg xmlns="http://www.w3.org/2000/svg" viewBox="0 0 80 80"><defs><style>.cls-1{fill:#ebc74f;}.cls-2{fill:#dd9a27;}.cls-3{fill:#f5da67;}.cls-4{fill:none;}</style></defs><title>bravo-dollar</title><g id="Layer_2" data-name="Layer 2"><g id="Layer_5" data-name="Layer 5"><path class="cls-1" d="M80,38.25c0,21.13-17.9,38.26-40,38.26S0,59.38,0,38.25a36.91,36.91,0,0,1,2.77-14c.24-.57.5-1.15.76-1.71a38.81,38.81,0,0,1,2.26-4.1c.17-.26.34-.52.52-.77s.35-.53.53-.78A40.44,40.44,0,0,1,40,0,40.4,40.4,0,0,1,73.69,17.64c.18.25.35.51.52.77A36.89,36.89,0,0,1,80,38.25Z"/><path class="cls-2" d="M76.7,38.25c0,.35,0,.69,0,1a33.7,33.7,0,0,0-5.31-17.48l-.47-.71A37.09,37.09,0,0,0,40,4.93,37.12,37.12,0,0,0,9.57,20.4l-.49.7c-.15.24-.31.48-.47.71a40.54,40.54,0,0,0-2.07,3.76c-.24.53-.48,1.05-.7,1.58a33.92,33.92,0,0,0-2.53,12c0-.31,0-.61,0-.91A34,34,0,0,1,5.84,25.37c.22-.52.46-1.05.7-1.56a36,36,0,0,1,2.07-3.76l.47-.71c.17-.24.33-.49.49-.71A37.13,37.13,0,0,1,40,3.15,37.09,37.09,0,0,1,70.91,19.34c.16.23.32.46.47.71A33.73,33.73,0,0,1,76.7,38.25Z"/><path class="cls-3" d="M76.69,39.29C76.12,58.19,59.91,73.35,40,73.35S3.81,58.13,3.31,39.16a33.92,33.92,0,0,1,2.53-12c.22-.53.46-1,.7-1.58a40.54,40.54,0,0,1,2.07-3.76c.16-.23.32-.47.47-.71l.49-.7A37.12,37.12,0,0,1,40,4.93,37.09,37.09,0,0,1,70.91,21.1l.47.71A33.7,33.7,0,0,1,76.69,39.29Z"/><path class="cls-2" d="M80,38.25v6.24c-.27,18.9-18,35.32-40,35.51C18.58,80.18,1,63.75,0,44.49V38.25C0,59.38,17.91,76.51,40,76.51S80,59.38,80,38.25Z"/><path class="cls-4" d="M80,38.25c0,21.13-17.9,38.26-40,38.26S0,59.38,0,38.25a36.91,36.91,0,0,1,2.77-14c.24-.57.5-1.15.76-1.71a38.81,38.81,0,0,1,2.26-4.1c.17-.26.34-.52.52-.77s.35-.53.53-.78A40.44,40.44,0,0,1,40,0,40.4,40.4,0,0,1,73.69,17.64c.18.25.35.51.52.77A36.89,36.89,0,0,1,80,38.25Z"/><path class="cls-2" d="M59.68,31.16A11.35,11.35,0,0,0,48.25,20.07H24.6a4.37,4.37,0,0,0-3,1.2,4,4,0,0,0-1.25,2.89V53.6a4,4,0,0,0,1.25,2.89,4.37,4.37,0,0,0,3,1.2H48.25A11.35,11.35,0,0,0,59.68,46.6a10.8,10.8,0,0,0-3.27-7.72A10.8,10.8,0,0,0,59.68,31.16ZM51.19,44.21A13.46,13.46,0,0,1,46.08,50a14.4,14.4,0,0,1-15.19,0,13.39,13.39,0,0,1-5.12-5.77,1.25,1.25,0,0,1,0-1,1.41,1.41,0,0,1,.74-.74,1.46,1.46,0,0,1,1.07,0,1.4,1.4,0,0,1,.77.7,10.83,10.83,0,0,0,4.09,4.61,11.51,11.51,0,0,0,12.12,0,10.83,10.83,0,0,0,4.09-4.61,1.33,1.33,0,0,1,.77-.7,1.46,1.46,0,0,1,1.07,0,1.39,1.39,0,0,1,.74.73A1.29,1.29,0,0,1,51.19,44.21Z"/><path class="cls-1" d="M59.68,29.91A11.35,11.35,0,0,0,48.25,18.82H24.6a4.37,4.37,0,0,0-3,1.2,4,4,0,0,0-1.25,2.89V52.35a4,4,0,0,0,1.25,2.89,4.37,4.37,0,0,0,3,1.2H48.25A11.35,11.35,0,0,0,59.68,45.35a10.8,10.8,0,0,0-3.27-7.72A10.8,10.8,0,0,0,59.68,29.91ZM51.19,43a13.46,13.46,0,0,1-5.11,5.78,14.4,14.4,0,0,1-15.19,0A13.39,13.39,0,0,1,25.77,43a1.25,1.25,0,0,1,0-1,1.41,1.41,0,0,1,.74-.74,1.46,1.46,0,0,1,1.07,0,1.4,1.4,0,0,1,.77.7,10.83,10.83,0,0,0,4.09,4.61,11.51,11.51,0,0,0,12.12,0,10.83,10.83,0,0,0,4.09-4.61,1.36,1.36,0,0,1,.77-.7,1.46,1.46,0,0,1,1.07,0,1.43,1.43,0,0,1,.74.73A1.29,1.29,0,0,1,51.19,43Z"/></g></g></svg>