<svg width="48" height="48" viewBox="0 0 48 48" fill="none" xmlns="http://www.w3.org/2000/svg">
<path d="M48 14.1474C48 6.40149 41.7754 0.108978 34.0547 0C33.9869 0 33.9205 0 33.8526 0H5.22105C3.8363 0.000131368 2.5083 0.550315 1.52918 1.52953C0.550058 2.50875 -6.23131e-09 3.83679 0 5.22155L0 42.7785C0 44.1633 0.550126 45.4914 1.52936 46.4706C2.50859 47.4499 3.83671 48 5.22155 48H33.8531C33.921 48 33.9874 48 34.0552 48C41.7754 47.891 48 41.5985 48 33.8526C48.0047 30.1733 46.5717 26.6377 44.0064 24C46.5717 21.3623 48.0047 17.8267 48 14.1474ZM37.6471 30.8032C36.3282 33.8155 34.1604 36.3784 31.4087 38.1787C28.657 39.9791 25.4404 40.9389 22.152 40.9409C18.8637 40.9429 15.6459 39.987 12.892 38.19C10.1381 36.393 7.96723 33.8327 6.64471 30.822C6.4678 30.408 6.46144 29.9409 6.62701 29.5222C6.79257 29.1035 7.11668 28.767 7.52891 28.5859C7.94114 28.4048 8.40818 28.3937 8.82854 28.5551C9.2489 28.7164 9.58862 29.0371 9.77387 29.4474C10.8293 31.8503 12.5618 33.8937 14.7597 35.3279C16.9576 36.7621 19.5257 37.525 22.1502 37.5234C24.7746 37.5218 27.3417 36.7557 29.5379 35.3187C31.734 33.8818 33.464 31.8363 34.5164 29.4321C34.7015 29.0219 35.0408 28.7013 35.4608 28.5398C35.8809 28.3783 36.3476 28.3889 36.7598 28.5695C37.172 28.75 37.4963 29.0858 37.6625 29.504C37.8286 29.9222 37.823 30.3891 37.6471 30.8032Z" fill="#4265ED"/>
</svg>
