<svg xmlns="http://www.w3.org/2000/svg" viewBox="0 0 80 80"><defs><style>.cls-1{fill:#c4ddff;}.cls-2{fill:#0060e8;}.cls-3{fill:#006bff;}.cls-4{fill:none;}</style></defs><title>Bravo-dollar-blue</title><g id="Layer_2" data-name="Layer 2"><g id="Layer_5" data-name="Layer 5"><path class="cls-1" d="M80,38.25c0,21.13-17.9,38.26-40,38.26S0,59.38,0,38.25a36.91,36.91,0,0,1,2.77-14c.24-.57.5-1.15.76-1.71a38.81,38.81,0,0,1,2.26-4.1c.17-.26.34-.52.52-.77s.35-.53.53-.78A40.44,40.44,0,0,1,40,0,40.4,40.4,0,0,1,73.69,17.64c.18.25.35.51.52.77A36.89,36.89,0,0,1,80,38.25Z"/><path class="cls-2" d="M76.7,38.25c0,.35,0,.69,0,1a33.7,33.7,0,0,0-5.31-17.48l-.47-.71A37.09,37.09,0,0,0,40,4.93,37.12,37.12,0,0,0,9.57,20.4l-.49.7c-.15.24-.31.48-.47.71a40.54,40.54,0,0,0-2.07,3.76c-.24.53-.48,1.05-.7,1.58a33.92,33.92,0,0,0-2.53,12c0-.31,0-.61,0-.91A34,34,0,0,1,5.84,25.37c.22-.52.46-1.05.7-1.56a36,36,0,0,1,2.07-3.76l.47-.71c.17-.24.33-.49.49-.71A37.13,37.13,0,0,1,40,3.15,37.09,37.09,0,0,1,70.91,19.34c.16.23.32.46.47.71A33.73,33.73,0,0,1,76.7,38.25Z"/><path class="cls-3" d="M76.69,39.29C76.12,58.19,59.91,73.35,40,73.35S3.81,58.13,3.31,39.16a33.92,33.92,0,0,1,2.53-12c.22-.53.46-1,.7-1.58a40.54,40.54,0,0,1,2.07-3.76c.16-.23.32-.47.47-.71l.49-.7A37.12,37.12,0,0,1,40,4.93,37.09,37.09,0,0,1,70.91,21.1l.47.71A33.7,33.7,0,0,1,76.69,39.29Z"/><path class="cls-2" d="M80,38.25v6.24c-.27,18.9-18,35.32-40,35.51C18.58,80.18,1,63.75,0,44.49V38.25C0,59.38,17.91,76.51,40,76.51S80,59.38,80,38.25Z"/><path class="cls-4" d="M80,38.25c0,21.13-17.9,38.26-40,38.26S0,59.38,0,38.25a36.91,36.91,0,0,1,2.77-14c.24-.57.5-1.15.76-1.71a38.81,38.81,0,0,1,2.26-4.1c.17-.26.34-.52.52-.77s.35-.53.53-.78A40.44,40.44,0,0,1,40,0,40.4,40.4,0,0,1,73.69,17.64c.18.25.35.51.52.77A36.89,36.89,0,0,1,80,38.25Z"/><path class="cls-2" d="M55.28,32.75a8.8,8.8,0,0,0-8.88-8.61H28a3.4,3.4,0,0,0-2.35.93,3.1,3.1,0,0,0-1,2.25V50.16a3.12,3.12,0,0,0,1,2.25,3.4,3.4,0,0,0,2.35.93H46.4a8.81,8.81,0,0,0,8.88-8.61,8.41,8.41,0,0,0-2.54-6A8.42,8.42,0,0,0,55.28,32.75ZM48.69,42.88a10.49,10.49,0,0,1-4,4.49,11.27,11.27,0,0,1-5.9,1.68,11.08,11.08,0,0,1-5.89-1.68,10.37,10.37,0,0,1-4-4.48,1,1,0,0,1,0-.79,1,1,0,0,1,.57-.57,1.13,1.13,0,0,1,.83,0,1.06,1.06,0,0,1,.6.54,8.27,8.27,0,0,0,3.18,3.58,8.93,8.93,0,0,0,9.41,0A8.39,8.39,0,0,0,46.7,42a1,1,0,0,1,.6-.54,1.11,1.11,0,0,1,.82,0,1,1,0,0,1,.58.57A1,1,0,0,1,48.69,42.88Z"/><path class="cls-1" d="M55.28,31.78a8.81,8.81,0,0,0-8.88-8.61H28a3.4,3.4,0,0,0-2.35.93,3.12,3.12,0,0,0-1,2.25V49.19a3.12,3.12,0,0,0,1,2.25,3.4,3.4,0,0,0,2.35.93H46.4a8.81,8.81,0,0,0,8.88-8.61,8.41,8.41,0,0,0-2.54-6A8.41,8.41,0,0,0,55.28,31.78ZM48.69,41.91a10.49,10.49,0,0,1-4,4.49,11.27,11.27,0,0,1-5.9,1.68,11.08,11.08,0,0,1-5.89-1.68,10.37,10.37,0,0,1-4-4.48,1,1,0,0,1,0-.79,1,1,0,0,1,.57-.57,1.13,1.13,0,0,1,.83,0,1.06,1.06,0,0,1,.6.54,8.27,8.27,0,0,0,3.18,3.58,8.93,8.93,0,0,0,9.41,0,8.39,8.39,0,0,0,3.17-3.59,1,1,0,0,1,.6-.54,1.11,1.11,0,0,1,.82,0,1,1,0,0,1,.58.57A1,1,0,0,1,48.69,41.91Z"/></g></g></svg>