<svg xmlns="http://www.w3.org/2000/svg" viewBox="0 0 80 80"><defs><style>.cls-1{fill:#64b9ff;}.cls-2{fill:#0060e8;}.cls-3{fill:#006bff;}.cls-4{fill:none;}.cls-5{fill:#fff;}</style></defs><title>bravo-dollar</title><g id="Layer_2" data-name="Layer 2"><g id="Layer_5" data-name="Layer 5"><g id="Flat_coin" data-name="Flat coin"><path class="cls-1" d="M80,40A40,40,0,1,1,2.77,25.33c.24-.61.5-1.21.76-1.79a40.68,40.68,0,0,1,2.26-4.29c.17-.27.34-.55.52-.81s.35-.55.53-.81a40,40,0,0,1,66.85.81c.18.26.35.54.52.81A39.84,39.84,0,0,1,80,40Z"/><path class="cls-2" d="M76.7,40c0,.36,0,.72,0,1.08a36.33,36.33,0,0,0-5.31-18.27c-.15-.25-.31-.5-.47-.75a36.71,36.71,0,0,0-61.34-.73c-.16.24-.32.49-.49.73s-.31.5-.47.75a42.06,42.06,0,0,0-2.07,3.93c-.24.55-.48,1.1-.7,1.65A36.83,36.83,0,0,0,3.31,41c0-.33,0-.64,0-1A36.92,36.92,0,0,1,5.84,26.53c.22-.55.46-1.1.7-1.63A37.58,37.58,0,0,1,8.61,21l.47-.75c.17-.25.33-.51.49-.74a36.7,36.7,0,0,1,61.34.74c.16.24.32.49.47.75A36.42,36.42,0,0,1,76.7,40Z"/><path class="cls-3" d="M76.69,41.08A36.7,36.7,0,0,1,3.31,41,36.83,36.83,0,0,1,5.84,28.39c.22-.55.46-1.1.7-1.65a42.06,42.06,0,0,1,2.07-3.93c.16-.25.32-.5.47-.75s.33-.49.49-.73a36.71,36.71,0,0,1,61.34.73c.16.25.32.5.47.75A36.33,36.33,0,0,1,76.69,41.08Z"/><path class="cls-4" d="M80,40A40,40,0,1,1,2.77,25.33c.24-.61.5-1.21.76-1.79a40.68,40.68,0,0,1,2.26-4.29c.17-.27.34-.55.52-.81s.35-.55.53-.81a40,40,0,0,1,66.85.81c.18.26.35.54.52.81A39.84,39.84,0,0,1,80,40Z"/><path class="cls-2" d="M55.28,34.24a9,9,0,0,0-8.88-9H28a3.31,3.31,0,0,0-3.32,3.32V52.45A3.31,3.31,0,0,0,28,55.77H46.4a9,9,0,0,0,6.34-15.26A9,9,0,0,0,55.28,34.24ZM48.69,44.83a10.79,10.79,0,0,1-19.74,0,1.1,1.1,0,0,1,.56-1.43,1.13,1.13,0,0,1,.83,0,1.12,1.12,0,0,1,.6.57,8.63,8.63,0,0,0,7.88,5.14A8.59,8.59,0,0,0,46.7,44a1.08,1.08,0,0,1,.6-.57,1.09,1.09,0,0,1,1.39,1.44Z"/><path class="cls-5" d="M55.28,33.23a9,9,0,0,0-8.88-9H28a3.31,3.31,0,0,0-3.32,3.32V51.44A3.31,3.31,0,0,0,28,54.76H46.4a9,9,0,0,0,6.34-15.27A9,9,0,0,0,55.28,33.23ZM48.69,43.82a10.78,10.78,0,0,1-19.74,0,1.06,1.06,0,0,1,0-.82,1.08,1.08,0,0,1,.57-.6,1.13,1.13,0,0,1,.83,0,1.08,1.08,0,0,1,.6.57,8.63,8.63,0,0,0,7.88,5.14A8.63,8.63,0,0,0,46.7,43a1.08,1.08,0,0,1,1.42-.55,1.08,1.08,0,0,1,.58.59A1.13,1.13,0,0,1,48.69,43.82Z"/></g></g></g></svg>