<svg xmlns="http://www.w3.org/2000/svg" viewBox="0 0 135.03 71"><defs><style>.cls-1{fill:#97d25c;}.cls-2{fill:#fafcfd;}</style></defs><title>BravoDollar</title><g id="Layer_2" data-name="Layer 2"><g id="Layer_5" data-name="Layer 5"><path class="cls-1" d="M94.31,35.5a28,28,0,1,1-28-28A28,28,0,0,1,94.31,35.5Z"/><path class="cls-2" d="M82.64,29.29a8.91,8.91,0,0,0-8.79-8.91H55.68a3.28,3.28,0,0,0-3.29,3.29V47.33a3.28,3.28,0,0,0,3.29,3.29H73.85A8.91,8.91,0,0,0,80.12,35.5,8.89,8.89,0,0,0,82.64,29.29Zm-6.52,10.5a10.67,10.67,0,0,1-19.54,0,1.06,1.06,0,0,1,0-.82,1.08,1.08,0,0,1,.56-.59,1.11,1.11,0,0,1,.82,0,1.06,1.06,0,0,1,.6.56,8.47,8.47,0,0,0,3.14,3.71,8.53,8.53,0,0,0,9.32,0,8.44,8.44,0,0,0,3.13-3.71,1.06,1.06,0,0,1,.6-.56,1.08,1.08,0,0,1,1.38,1.43Z"/><path class="cls-1" d="M128.6,0H6.43C2.88,0,0,3.3,0,7.37V63.63C0,67.7,2.88,71,6.43,71H128.6c3.55,0,6.43-3.3,6.43-7.37V7.37C135,3.3,132.15,0,128.6,0Zm4.69,43.42a7.41,7.41,0,0,1-4.62,7.07,17.7,17.7,0,0,0-7.16,5,21.21,21.21,0,0,0-4.37,8.21C116.26,66.82,113.82,69,111,69H24.06c-2.85,0-5.29-2.18-6.17-5.29a21.21,21.21,0,0,0-4.37-8.21,17.77,17.77,0,0,0-7.16-5,7.41,7.41,0,0,1-4.62-7.06V27.57a7.4,7.4,0,0,1,4.62-7.06,17.77,17.77,0,0,0,7.16-5,21.21,21.21,0,0,0,4.37-8.21C18.77,4.18,21.21,2,24.06,2H111c2.85,0,5.29,2.18,6.17,5.29a21.21,21.21,0,0,0,4.37,8.21,17.7,17.7,0,0,0,7.16,5,7.41,7.41,0,0,1,4.62,7.07Z"/><path class="cls-2" d="M128.67,20.51a17.7,17.7,0,0,1-7.16-5,21.21,21.21,0,0,1-4.37-8.21C116.26,4.18,113.82,2,111,2H24.06c-2.85,0-5.29,2.18-6.17,5.29a21.21,21.21,0,0,1-4.37,8.21,17.77,17.77,0,0,1-7.16,5,7.4,7.4,0,0,0-4.62,7.06V43.43a7.41,7.41,0,0,0,4.62,7.06,17.77,17.77,0,0,1,7.16,5,21.21,21.21,0,0,1,4.37,8.21c.88,3.11,3.32,5.29,6.17,5.29H111c2.85,0,5.29-2.18,6.17-5.29a21.21,21.21,0,0,1,4.37-8.21,17.7,17.7,0,0,1,7.16-5,7.41,7.41,0,0,0,4.62-7.07V27.58A7.41,7.41,0,0,0,128.67,20.51Zm-62.39,43a28,28,0,1,1,28-28A28,28,0,0,1,66.28,63.53Z"/><path class="cls-2" d="M63.38,21.38a1,1,0,0,1-1-1V16.75a1,1,0,1,1,2,0v3.63A1,1,0,0,1,63.38,21.38Z"/><path class="cls-2" d="M63.32,55.25a1,1,0,0,1-1-1V50.63a1,1,0,1,1,2,0v3.62A1,1,0,0,1,63.32,55.25Z"/><path class="cls-2" d="M69.24,21.38a1,1,0,0,1-1-1V16.75a1,1,0,0,1,2,0v3.63A1,1,0,0,1,69.24,21.38Z"/><path class="cls-2" d="M69.17,55.25a1,1,0,0,1-1-1V50.63a1,1,0,0,1,2,0v3.62A1,1,0,0,1,69.17,55.25Z"/></g></g></svg>