<svg width="292" height="133" viewBox="0 0 292 133" fill="none" xmlns="http://www.w3.org/2000/svg">
<g clip-path="url(#clip0)" filter="url(#filter0_d)">
<path d="M262.016 104.08H261.524V118.982H262.016V104.08Z" fill="#3F3D56"/>
<path d="M261.77 106.187C263.201 106.187 264.361 105.243 264.361 104.08C264.361 102.916 263.201 101.972 261.77 101.972C260.339 101.972 259.178 102.916 259.178 104.08C259.178 105.243 260.339 106.187 261.77 106.187Z" fill="#3F3D56"/>
<path d="M261.77 113.265C261.77 113.265 261.4 106.79 253.811 107.543L261.77 113.265Z" fill="#3F3D56"/>
<path d="M24.6848 111.916C26.1804 116.412 31.3031 119.197 31.3031 119.197C31.3031 119.197 34.001 114.692 32.5054 110.196C31.0098 105.7 25.8871 102.915 25.8871 102.915C25.8871 102.915 23.1892 107.42 24.6848 111.916Z" fill="white"/>
<path d="M26.8824 110.951C30.9863 114.199 31.4875 119.194 31.4875 119.194C31.4875 119.194 25.335 118.921 21.2311 115.672C17.1272 112.423 16.626 107.428 16.626 107.428C16.626 107.428 22.7785 107.702 26.8824 110.951Z" fill="#3F3D56"/>
<path opacity="0.1" d="M118.959 7L10.0547 67.8102V53.9554L94.1602 7H118.959Z" fill="black"/>
<path opacity="0.1" d="M77.7691 7L10.0547 44.8051V30.9584L52.9682 7H77.7691Z" fill="black"/>
<path opacity="0.1" d="M33.0703 7L10.0547 19.8494V7H33.0703Z" fill="black"/>
<path opacity="0.1" d="M145.991 92.2424C167.616 92.2424 185.147 90.0904 185.147 87.4359C185.147 84.7813 167.616 82.6294 145.991 82.6294C124.366 82.6294 106.835 84.7813 106.835 87.4359C106.835 90.0904 124.366 92.2424 145.991 92.2424Z" fill="black"/>
<path opacity="0.1" d="M145.991 88.2375C167.616 88.2375 185.147 86.0856 185.147 83.431C185.147 80.7765 167.616 78.6245 145.991 78.6245C124.366 78.6245 106.835 80.7765 106.835 83.431C106.835 86.0856 124.366 88.2375 145.991 88.2375Z" fill="black"/>
<path opacity="0.1" d="M145.991 84.2316C167.616 84.2316 185.147 82.0797 185.147 79.4251C185.147 76.7706 167.616 74.6187 145.991 74.6187C124.366 74.6187 106.835 76.7706 106.835 79.4251C106.835 82.0797 124.366 84.2316 145.991 84.2316Z" fill="black"/>
<path opacity="0.1" d="M145.991 80.2265C167.616 80.2265 185.147 78.0746 185.147 75.42C185.147 72.7655 167.616 70.6135 145.991 70.6135C124.366 70.6135 106.835 72.7655 106.835 75.42C106.835 78.0746 124.366 80.2265 145.991 80.2265Z" fill="black"/>
<path opacity="0.1" d="M145.991 76.2216C167.616 76.2216 185.147 74.0697 185.147 71.4151C185.147 68.7606 167.616 66.6086 145.991 66.6086C124.366 66.6086 106.835 68.7606 106.835 71.4151C106.835 74.0697 124.366 76.2216 145.991 76.2216Z" fill="black"/>
<path opacity="0.1" d="M145.991 72.2158C167.616 72.2158 185.147 70.0638 185.147 67.4093C185.147 64.7547 167.616 62.6028 145.991 62.6028C124.366 62.6028 106.835 64.7547 106.835 67.4093C106.835 70.0638 124.366 72.2158 145.991 72.2158Z" fill="black"/>
<path d="M159.706 52.6979C156.584 62.0827 145.892 67.8949 145.892 67.8949C145.892 67.8949 140.26 58.4914 143.382 49.1066C146.504 39.7219 157.197 33.9097 157.197 33.9097C157.197 33.9097 162.828 43.3131 159.706 52.6979Z" fill="white"/>
<path d="M131.307 52.6979C134.428 62.0826 145.121 67.8949 145.121 67.8949C145.121 67.8949 150.753 58.4914 147.631 49.1066C144.509 39.7219 133.816 33.9097 133.816 33.9097C133.816 33.9097 128.185 43.3131 131.307 52.6979Z" fill="white"/>
<path d="M135.894 50.6806C144.46 57.4621 145.507 67.8868 145.507 67.8868C145.507 67.8868 132.664 67.3166 124.098 60.5351C115.532 53.7536 114.486 43.3289 114.486 43.3289C114.486 43.3289 127.328 43.8991 135.894 50.6806Z" fill="#3F3D56"/>
<path d="M155.119 50.6806C146.553 57.4621 145.506 67.8868 145.506 67.8868C145.506 67.8868 158.349 67.3166 166.915 60.5351C175.481 53.7536 176.527 43.3289 176.527 43.3289C176.527 43.3289 163.685 43.8991 155.119 50.6806Z" fill="#3F3D56"/>
<path d="M211.496 95.1821H73.1399V95.5827H211.496V95.1821Z" fill="#3F3D56"/>
<path d="M167.704 119.206C167.12 119.206 166.548 119.065 166.062 118.801C165.576 118.537 165.198 118.162 164.974 117.723C164.75 117.283 164.692 116.8 164.806 116.334C164.92 115.868 165.201 115.44 165.615 115.104C166.028 114.767 166.554 114.539 167.128 114.446C167.701 114.353 168.295 114.401 168.835 114.583C169.375 114.764 169.837 115.073 170.161 115.468C170.486 115.863 170.659 116.328 170.659 116.803C170.658 117.44 170.347 118.051 169.793 118.501C169.239 118.952 168.488 119.205 167.704 119.206ZM167.704 114.8C167.217 114.8 166.741 114.918 166.336 115.138C165.931 115.358 165.615 115.671 165.429 116.036C165.243 116.402 165.194 116.805 165.289 117.194C165.384 117.582 165.618 117.939 165.963 118.219C166.307 118.499 166.746 118.69 167.224 118.767C167.701 118.844 168.197 118.805 168.647 118.653C169.097 118.502 169.481 118.245 169.752 117.916C170.022 117.586 170.167 117.199 170.167 116.803C170.166 116.272 169.906 115.763 169.445 115.387C168.983 115.012 168.357 114.801 167.704 114.8Z" fill="#F0F0F0"/>
<path d="M74.8214 70.5986H69.96V66.645H74.8214V70.5986ZM70.3339 70.2945H74.4475V66.9491H70.3339V70.2945Z" fill="#3F3D56"/>
<path d="M205.252 98.2526L201.936 95.3615L205.491 92.6648L208.807 95.5559L205.252 98.2526ZM202.465 95.3764L205.271 97.8228L208.279 95.541L205.473 93.0946L202.465 95.3764Z" fill="#F0F0F0"/>
<path opacity="0.1" d="M281.927 29.8311V87.1084C272.587 87.1084 263.63 84.0911 257.026 78.7204C250.422 73.3496 246.712 66.0652 246.712 58.4697C246.712 50.8743 250.422 43.5899 257.026 38.2191C263.63 32.8483 272.587 29.8311 281.927 29.8311Z" fill="black"/>
<path opacity="0.1" d="M249.42 59.4711C264.381 59.4711 276.509 49.6081 276.509 37.4414C276.509 25.2747 264.381 15.4116 249.42 15.4116C234.46 15.4116 222.332 25.2747 222.332 37.4414C222.332 49.6081 234.46 59.4711 249.42 59.4711Z" fill="black"/>
<path opacity="0.1" d="M225.533 35.8392C233.149 35.8392 239.324 30.818 239.324 24.6241C239.324 18.4301 233.149 13.4089 225.533 13.4089C217.917 13.4089 211.742 18.4301 211.742 24.6241C211.742 30.818 217.917 35.8392 225.533 35.8392Z" fill="black"/>
<path d="M225.61 30.4461C224.191 30.4461 222.805 30.1041 221.626 29.4634C220.447 28.8227 219.528 27.912 218.985 26.8465C218.443 25.781 218.301 24.6085 218.577 23.4774C218.854 22.3463 219.537 21.3073 220.54 20.4918C221.542 19.6763 222.82 19.121 224.211 18.896C225.602 18.671 227.043 18.7865 228.354 19.2278C229.664 19.6691 230.784 20.4165 231.571 21.3754C232.359 22.3344 232.78 23.4617 232.78 24.615C232.778 26.161 232.022 27.6431 230.677 28.7363C229.333 29.8295 227.511 30.4444 225.61 30.4461Z" fill="#3F3D56"/>
<path d="M145.574 32.4417C146.945 32.4417 148.056 31.538 148.056 30.4232C148.056 29.3085 146.945 28.4048 145.574 28.4048C144.204 28.4048 143.093 29.3085 143.093 30.4232C143.093 31.538 144.204 32.4417 145.574 32.4417Z" fill="#F0F0F0"/>
<path d="M145.575 36.2549C144.157 36.2549 142.77 35.9129 141.591 35.2722C140.412 34.6315 139.493 33.7208 138.95 32.6553C138.408 31.5898 138.266 30.4174 138.542 29.2863C138.819 28.1552 139.502 27.1162 140.505 26.3007C141.507 25.4852 142.785 24.9298 144.176 24.7048C145.567 24.4798 147.008 24.5953 148.319 25.0366C149.629 25.478 150.749 26.2254 151.536 27.1843C152.324 28.1432 152.745 29.2706 152.745 30.4239C152.743 31.9698 151.987 33.452 150.642 34.5451C149.298 35.6383 147.476 36.2532 145.575 36.2549ZM145.575 25.0413C144.266 25.0413 142.986 25.357 141.898 25.9484C140.809 26.5399 139.961 27.3805 139.46 28.3641C138.959 29.3476 138.828 30.4298 139.083 31.4739C139.339 32.518 139.969 33.4771 140.895 34.2299C141.82 34.9826 143 35.4953 144.283 35.703C145.567 35.9107 146.898 35.8041 148.108 35.3967C149.317 34.9893 150.351 34.2994 151.078 33.4142C151.805 32.5291 152.193 31.4884 152.193 30.4239C152.191 28.9968 151.493 27.6287 150.253 26.6196C149.012 25.6106 147.329 25.043 145.575 25.0413Z" fill="#2F2E41"/>
<path d="M80.0847 100.04V102H71.7647V87.6H74.1047V100.04H80.0847ZM87.7617 95.75C87.7617 95.39 87.7084 95.0567 87.6017 94.75C87.5017 94.4367 87.3517 94.1667 87.1517 93.94C86.9517 93.7067 86.7017 93.5267 86.4017 93.4C86.1084 93.2667 85.7684 93.2 85.3817 93.2C84.6017 93.2 83.9884 93.4233 83.5417 93.87C83.0951 94.3167 82.8117 94.9433 82.6917 95.75H87.7617ZM82.6317 97.07C82.6584 97.65 82.7484 98.1533 82.9017 98.58C83.0551 99 83.2584 99.35 83.5117 99.63C83.7717 99.91 84.0784 100.12 84.4317 100.26C84.7917 100.393 85.1917 100.46 85.6317 100.46C86.0517 100.46 86.4151 100.413 86.7217 100.32C87.0284 100.22 87.2951 100.113 87.5217 100C87.7484 99.88 87.9417 99.7733 88.1017 99.68C88.2617 99.58 88.4084 99.53 88.5417 99.53C88.7151 99.53 88.8484 99.5967 88.9417 99.73L89.5517 100.52C89.2984 100.82 89.0117 101.073 88.6917 101.28C88.3717 101.487 88.0317 101.657 87.6717 101.79C87.3117 101.917 86.9417 102.007 86.5617 102.06C86.1817 102.12 85.8117 102.15 85.4517 102.15C84.7451 102.15 84.0884 102.033 83.4817 101.8C82.8817 101.56 82.3584 101.21 81.9117 100.75C81.4717 100.29 81.1251 99.72 80.8717 99.04C80.6251 98.36 80.5017 97.5767 80.5017 96.69C80.5017 95.9833 80.6117 95.3233 80.8317 94.71C81.0584 94.0967 81.3784 93.5633 81.7917 93.11C82.2117 92.6567 82.7184 92.3 83.3117 92.04C83.9117 91.7733 84.5884 91.64 85.3417 91.64C85.9684 91.64 86.5484 91.7433 87.0817 91.95C87.6151 92.15 88.0751 92.4467 88.4617 92.84C88.8484 93.2333 89.1484 93.7167 89.3617 94.29C89.5817 94.8567 89.6917 95.5033 89.6917 96.23C89.6917 96.5633 89.6551 96.7867 89.5817 96.9C89.5084 97.0133 89.3751 97.07 89.1817 97.07H82.6317ZM94.8691 102.16C94.0224 102.16 93.3691 101.923 92.9091 101.45C92.4557 100.97 92.2291 100.297 92.2291 99.43V93.49H91.1091C90.9891 93.49 90.8857 93.4533 90.7991 93.38C90.7124 93.3 90.6691 93.1833 90.6691 93.03V92.16L92.3191 91.92L92.7891 88.97C92.8224 88.8567 92.8791 88.7667 92.9591 88.7C93.0391 88.6267 93.1457 88.59 93.2791 88.59H94.3791V91.94H97.2091V93.49H94.3791V99.28C94.3791 99.6467 94.4691 99.9267 94.6491 100.12C94.8291 100.313 95.0691 100.41 95.3691 100.41C95.5357 100.41 95.6791 100.39 95.7991 100.35C95.9191 100.303 96.0224 100.257 96.1091 100.21C96.1957 100.157 96.2691 100.11 96.3291 100.07C96.3957 100.023 96.4591 100 96.5191 100C96.6391 100 96.7357 100.067 96.8091 100.2L97.4491 101.25C97.1157 101.543 96.7224 101.77 96.2691 101.93C95.8157 102.083 95.3491 102.16 94.8691 102.16ZM100.374 86.64C100.674 87.1467 100.877 87.6767 100.984 88.23C101.09 88.7767 101.1 89.32 101.014 89.86C100.927 90.3933 100.744 90.9067 100.464 91.4C100.19 91.8933 99.8238 92.3333 99.3638 92.72L98.6938 92.31C98.5804 92.2367 98.5271 92.1433 98.5338 92.03C98.5471 91.91 98.5871 91.8167 98.6538 91.75C98.8071 91.5633 98.9471 91.3267 99.0738 91.04C99.2004 90.7533 99.2838 90.44 99.3238 90.1C99.3704 89.7533 99.3604 89.39 99.2938 89.01C99.2338 88.63 99.0904 88.2533 98.8638 87.88C98.7571 87.7067 98.7271 87.5567 98.7738 87.43C98.8204 87.3033 98.9171 87.2133 99.0637 87.16L100.374 86.64ZM108.861 93.65C108.808 93.7433 108.748 93.81 108.681 93.85C108.614 93.89 108.531 93.91 108.431 93.91C108.318 93.91 108.194 93.8767 108.061 93.81C107.928 93.7367 107.771 93.6567 107.591 93.57C107.411 93.4833 107.198 93.4067 106.951 93.34C106.711 93.2667 106.428 93.23 106.101 93.23C105.834 93.23 105.591 93.2633 105.371 93.33C105.158 93.39 104.974 93.48 104.821 93.6C104.674 93.7133 104.561 93.85 104.481 94.01C104.401 94.1633 104.361 94.33 104.361 94.51C104.361 94.75 104.434 94.95 104.581 95.11C104.728 95.27 104.921 95.41 105.161 95.53C105.401 95.6433 105.674 95.7467 105.981 95.84C106.288 95.9333 106.601 96.0333 106.921 96.14C107.241 96.2467 107.554 96.37 107.861 96.51C108.168 96.65 108.441 96.8233 108.681 97.03C108.921 97.23 109.114 97.4767 109.261 97.77C109.408 98.0567 109.481 98.4067 109.481 98.82C109.481 99.3 109.394 99.7433 109.221 100.15C109.048 100.557 108.794 100.91 108.461 101.21C108.128 101.51 107.711 101.743 107.211 101.91C106.718 102.077 106.151 102.16 105.511 102.16C105.158 102.16 104.814 102.127 104.481 102.06C104.154 102 103.841 101.917 103.541 101.81C103.248 101.697 102.971 101.563 102.711 101.41C102.458 101.257 102.231 101.09 102.031 100.91L102.531 100.09C102.591 99.99 102.664 99.9133 102.751 99.86C102.844 99.8 102.958 99.77 103.091 99.77C103.231 99.77 103.368 99.8167 103.501 99.91C103.641 99.9967 103.801 100.093 103.981 100.2C104.168 100.307 104.391 100.407 104.651 100.5C104.911 100.587 105.234 100.63 105.621 100.63C105.941 100.63 106.218 100.593 106.451 100.52C106.684 100.44 106.878 100.333 107.031 100.2C107.184 100.067 107.298 99.9167 107.371 99.75C107.444 99.5767 107.481 99.3933 107.481 99.2C107.481 98.94 107.408 98.7267 107.261 98.56C107.114 98.3933 106.918 98.25 106.671 98.13C106.431 98.01 106.154 97.9033 105.841 97.81C105.534 97.7167 105.221 97.6167 104.901 97.51C104.581 97.4033 104.264 97.28 103.951 97.14C103.644 97 103.368 96.8233 103.121 96.61C102.881 96.39 102.688 96.1267 102.541 95.82C102.394 95.5067 102.321 95.1267 102.321 94.68C102.321 94.2733 102.401 93.8867 102.561 93.52C102.728 93.1533 102.968 92.83 103.281 92.55C103.601 92.27 103.991 92.05 104.451 91.89C104.918 91.7233 105.454 91.64 106.061 91.64C106.748 91.64 107.371 91.75 107.931 91.97C108.491 92.19 108.961 92.49 109.341 92.87L108.861 93.65ZM128.672 94.91V100.61C127.239 101.643 125.572 102.16 123.672 102.16C122.505 102.16 121.449 101.98 120.502 101.62C119.562 101.253 118.759 100.747 118.092 100.1C117.425 99.4467 116.912 98.67 116.552 97.77C116.192 96.87 116.012 95.88 116.012 94.8C116.012 93.7133 116.185 92.72 116.532 91.82C116.879 90.9133 117.375 90.1367 118.022 89.49C118.669 88.8367 119.449 88.3333 120.362 87.98C121.275 87.62 122.302 87.44 123.442 87.44C124.022 87.44 124.559 87.4867 125.052 87.58C125.552 87.6667 126.015 87.79 126.442 87.95C126.869 88.11 127.262 88.3033 127.622 88.53C127.982 88.7567 128.312 89.01 128.612 89.29L127.942 90.36C127.835 90.5267 127.699 90.63 127.532 90.67C127.365 90.71 127.185 90.67 126.992 90.55C126.799 90.4367 126.592 90.3167 126.372 90.19C126.159 90.0633 125.912 89.9467 125.632 89.84C125.352 89.7267 125.029 89.6367 124.662 89.57C124.295 89.4967 123.862 89.46 123.362 89.46C122.602 89.46 121.915 89.5867 121.302 89.84C120.695 90.0867 120.175 90.4433 119.742 90.91C119.309 91.37 118.975 91.93 118.742 92.59C118.509 93.25 118.392 93.9867 118.392 94.8C118.392 95.66 118.515 96.43 118.762 97.11C119.009 97.7833 119.359 98.3567 119.812 98.83C120.265 99.2967 120.812 99.6533 121.452 99.9C122.099 100.147 122.819 100.27 123.612 100.27C124.205 100.27 124.732 100.207 125.192 100.08C125.659 99.9533 126.115 99.7767 126.562 99.55V96.69H124.552C124.399 96.69 124.279 96.65 124.192 96.57C124.105 96.4833 124.062 96.3733 124.062 96.24V94.91H128.672ZM137.605 95.75C137.605 95.39 137.552 95.0567 137.445 94.75C137.345 94.4367 137.195 94.1667 136.995 93.94C136.795 93.7067 136.545 93.5267 136.245 93.4C135.952 93.2667 135.612 93.2 135.225 93.2C134.445 93.2 133.832 93.4233 133.385 93.87C132.939 94.3167 132.655 94.9433 132.535 95.75H137.605ZM132.475 97.07C132.502 97.65 132.592 98.1533 132.745 98.58C132.899 99 133.102 99.35 133.355 99.63C133.615 99.91 133.922 100.12 134.275 100.26C134.635 100.393 135.035 100.46 135.475 100.46C135.895 100.46 136.259 100.413 136.565 100.32C136.872 100.22 137.139 100.113 137.365 100C137.592 99.88 137.785 99.7733 137.945 99.68C138.105 99.58 138.252 99.53 138.385 99.53C138.559 99.53 138.692 99.5967 138.785 99.73L139.395 100.52C139.142 100.82 138.855 101.073 138.535 101.28C138.215 101.487 137.875 101.657 137.515 101.79C137.155 101.917 136.785 102.007 136.405 102.06C136.025 102.12 135.655 102.15 135.295 102.15C134.589 102.15 133.932 102.033 133.325 101.8C132.725 101.56 132.202 101.21 131.755 100.75C131.315 100.29 130.969 99.72 130.715 99.04C130.469 98.36 130.345 97.5767 130.345 96.69C130.345 95.9833 130.455 95.3233 130.675 94.71C130.902 94.0967 131.222 93.5633 131.635 93.11C132.055 92.6567 132.562 92.3 133.155 92.04C133.755 91.7733 134.432 91.64 135.185 91.64C135.812 91.64 136.392 91.7433 136.925 91.95C137.459 92.15 137.919 92.4467 138.305 92.84C138.692 93.2333 138.992 93.7167 139.205 94.29C139.425 94.8567 139.535 95.5033 139.535 96.23C139.535 96.5633 139.499 96.7867 139.425 96.9C139.352 97.0133 139.219 97.07 139.025 97.07H132.475ZM144.713 102.16C143.866 102.16 143.213 101.923 142.753 101.45C142.299 100.97 142.073 100.297 142.073 99.43V93.49H140.953C140.833 93.49 140.729 93.4533 140.643 93.38C140.556 93.3 140.513 93.1833 140.513 93.03V92.16L142.163 91.92L142.633 88.97C142.666 88.8567 142.723 88.7667 142.803 88.7C142.883 88.6267 142.989 88.59 143.123 88.59H144.223V91.94H147.053V93.49H144.223V99.28C144.223 99.6467 144.313 99.9267 144.493 100.12C144.673 100.313 144.913 100.41 145.213 100.41C145.379 100.41 145.523 100.39 145.643 100.35C145.763 100.303 145.866 100.257 145.953 100.21C146.039 100.157 146.113 100.11 146.173 100.07C146.239 100.023 146.303 100 146.363 100C146.483 100 146.579 100.067 146.653 100.2L147.293 101.25C146.959 101.543 146.566 101.77 146.113 101.93C145.659 102.083 145.193 102.16 144.713 102.16ZM159.818 93.65C159.765 93.7433 159.705 93.81 159.638 93.85C159.571 93.89 159.488 93.91 159.388 93.91C159.275 93.91 159.151 93.8767 159.018 93.81C158.885 93.7367 158.728 93.6567 158.548 93.57C158.368 93.4833 158.155 93.4067 157.908 93.34C157.668 93.2667 157.385 93.23 157.058 93.23C156.791 93.23 156.548 93.2633 156.328 93.33C156.115 93.39 155.931 93.48 155.778 93.6C155.631 93.7133 155.518 93.85 155.438 94.01C155.358 94.1633 155.318 94.33 155.318 94.51C155.318 94.75 155.391 94.95 155.538 95.11C155.685 95.27 155.878 95.41 156.118 95.53C156.358 95.6433 156.631 95.7467 156.938 95.84C157.245 95.9333 157.558 96.0333 157.878 96.14C158.198 96.2467 158.511 96.37 158.818 96.51C159.125 96.65 159.398 96.8233 159.638 97.03C159.878 97.23 160.071 97.4767 160.218 97.77C160.365 98.0567 160.438 98.4067 160.438 98.82C160.438 99.3 160.351 99.7433 160.178 100.15C160.005 100.557 159.751 100.91 159.418 101.21C159.085 101.51 158.668 101.743 158.168 101.91C157.675 102.077 157.108 102.16 156.468 102.16C156.115 102.16 155.771 102.127 155.438 102.06C155.111 102 154.798 101.917 154.498 101.81C154.205 101.697 153.928 101.563 153.668 101.41C153.415 101.257 153.188 101.09 152.988 100.91L153.488 100.09C153.548 99.99 153.621 99.9133 153.708 99.86C153.801 99.8 153.915 99.77 154.048 99.77C154.188 99.77 154.325 99.8167 154.458 99.91C154.598 99.9967 154.758 100.093 154.938 100.2C155.125 100.307 155.348 100.407 155.608 100.5C155.868 100.587 156.191 100.63 156.578 100.63C156.898 100.63 157.175 100.593 157.408 100.52C157.641 100.44 157.835 100.333 157.988 100.2C158.141 100.067 158.255 99.9167 158.328 99.75C158.401 99.5767 158.438 99.3933 158.438 99.2C158.438 98.94 158.365 98.7267 158.218 98.56C158.071 98.3933 157.875 98.25 157.628 98.13C157.388 98.01 157.111 97.9033 156.798 97.81C156.491 97.7167 156.178 97.6167 155.858 97.51C155.538 97.4033 155.221 97.28 154.908 97.14C154.601 97 154.325 96.8233 154.078 96.61C153.838 96.39 153.645 96.1267 153.498 95.82C153.351 95.5067 153.278 95.1267 153.278 94.68C153.278 94.2733 153.358 93.8867 153.518 93.52C153.685 93.1533 153.925 92.83 154.238 92.55C154.558 92.27 154.948 92.05 155.408 91.89C155.875 91.7233 156.411 91.64 157.018 91.64C157.705 91.64 158.328 91.75 158.888 91.97C159.448 92.19 159.918 92.49 160.298 92.87L159.818 93.65ZM165.728 102.16C164.882 102.16 164.228 101.923 163.768 101.45C163.315 100.97 163.088 100.297 163.088 99.43V93.49H161.968C161.848 93.49 161.745 93.4533 161.658 93.38C161.572 93.3 161.528 93.1833 161.528 93.03V92.16L163.178 91.92L163.648 88.97C163.682 88.8567 163.738 88.7667 163.818 88.7C163.898 88.6267 164.005 88.59 164.138 88.59H165.238V91.94H168.068V93.49H165.238V99.28C165.238 99.6467 165.328 99.9267 165.508 100.12C165.688 100.313 165.928 100.41 166.228 100.41C166.395 100.41 166.538 100.39 166.658 100.35C166.778 100.303 166.882 100.257 166.968 100.21C167.055 100.157 167.128 100.11 167.188 100.07C167.255 100.023 167.318 100 167.378 100C167.498 100 167.595 100.067 167.668 100.2L168.308 101.25C167.975 101.543 167.582 101.77 167.128 101.93C166.675 102.083 166.208 102.16 165.728 102.16ZM175.213 97.54C174.446 97.5667 173.8 97.63 173.273 97.73C172.746 97.8233 172.32 97.9467 171.993 98.1C171.666 98.2467 171.43 98.4233 171.283 98.63C171.143 98.8367 171.073 99.0633 171.073 99.31C171.073 99.55 171.11 99.7567 171.183 99.93C171.263 100.097 171.37 100.237 171.503 100.35C171.643 100.457 171.803 100.537 171.983 100.59C172.17 100.637 172.373 100.66 172.593 100.66C173.153 100.66 173.633 100.557 174.033 100.35C174.44 100.137 174.833 99.83 175.213 99.43V97.54ZM169.513 93.22C170.666 92.1467 172.04 91.61 173.633 91.61C174.22 91.61 174.74 91.7067 175.193 91.9C175.653 92.0867 176.036 92.3533 176.343 92.7C176.656 93.0467 176.893 93.46 177.053 93.94C177.22 94.4133 177.303 94.94 177.303 95.52V102H176.343C176.136 102 175.98 101.97 175.873 101.91C175.766 101.843 175.676 101.713 175.603 101.52L175.393 100.69C175.133 100.923 174.876 101.133 174.623 101.32C174.37 101.5 174.106 101.653 173.833 101.78C173.566 101.907 173.276 102 172.963 102.06C172.656 102.127 172.316 102.16 171.943 102.16C171.53 102.16 171.143 102.103 170.783 101.99C170.43 101.877 170.123 101.707 169.863 101.48C169.603 101.247 169.396 100.96 169.243 100.62C169.096 100.28 169.023 99.88 169.023 99.42C169.023 99.0267 169.126 98.6433 169.333 98.27C169.546 97.8967 169.893 97.5633 170.373 97.27C170.86 96.97 171.496 96.7233 172.283 96.53C173.076 96.3367 174.053 96.2267 175.213 96.2V95.52C175.213 94.7867 175.056 94.24 174.743 93.88C174.43 93.52 173.97 93.34 173.363 93.34C172.95 93.34 172.603 93.3933 172.323 93.5C172.043 93.6 171.8 93.71 171.593 93.83C171.386 93.95 171.203 94.0633 171.043 94.17C170.883 94.27 170.713 94.32 170.533 94.32C170.386 94.32 170.26 94.2833 170.153 94.21C170.053 94.13 169.97 94.0333 169.903 93.92L169.513 93.22ZM181.852 93.69C182.172 93.0433 182.558 92.5367 183.012 92.17C183.465 91.7967 184.008 91.61 184.642 91.61C184.862 91.61 185.068 91.6367 185.262 91.69C185.455 91.7367 185.628 91.81 185.782 91.91L185.632 93.53C185.605 93.6433 185.562 93.7233 185.502 93.77C185.448 93.81 185.375 93.83 185.282 93.83C185.182 93.83 185.038 93.8133 184.852 93.78C184.665 93.74 184.468 93.72 184.262 93.72C183.962 93.72 183.695 93.7633 183.462 93.85C183.235 93.9367 183.028 94.0633 182.842 94.23C182.662 94.3967 182.502 94.6 182.362 94.84C182.222 95.08 182.092 95.3533 181.972 95.66V102H179.822V91.8H181.072C181.298 91.8 181.455 91.8433 181.542 91.93C181.628 92.01 181.688 92.1533 181.722 92.36L181.852 93.69ZM190.475 102.16C189.628 102.16 188.975 101.923 188.515 101.45C188.061 100.97 187.835 100.297 187.835 99.43V93.49H186.715C186.595 93.49 186.491 93.4533 186.405 93.38C186.318 93.3 186.275 93.1833 186.275 93.03V92.16L187.925 91.92L188.395 88.97C188.428 88.8567 188.485 88.7667 188.565 88.7C188.645 88.6267 188.751 88.59 188.885 88.59H189.985V91.94H192.815V93.49H189.985V99.28C189.985 99.6467 190.075 99.9267 190.255 100.12C190.435 100.313 190.675 100.41 190.975 100.41C191.141 100.41 191.285 100.39 191.405 100.35C191.525 100.303 191.628 100.257 191.715 100.21C191.801 100.157 191.875 100.11 191.935 100.07C192.001 100.023 192.065 100 192.125 100C192.245 100 192.341 100.067 192.415 100.2L193.055 101.25C192.721 101.543 192.328 101.77 191.875 101.93C191.421 102.083 190.955 102.16 190.475 102.16ZM201.121 95.75C201.121 95.39 201.068 95.0567 200.961 94.75C200.861 94.4367 200.711 94.1667 200.511 93.94C200.311 93.7067 200.061 93.5267 199.761 93.4C199.468 93.2667 199.128 93.2 198.741 93.2C197.961 93.2 197.348 93.4233 196.901 93.87C196.454 94.3167 196.171 94.9433 196.051 95.75H201.121ZM195.991 97.07C196.018 97.65 196.108 98.1533 196.261 98.58C196.414 99 196.618 99.35 196.871 99.63C197.131 99.91 197.438 100.12 197.791 100.26C198.151 100.393 198.551 100.46 198.991 100.46C199.411 100.46 199.774 100.413 200.081 100.32C200.388 100.22 200.654 100.113 200.881 100C201.108 99.88 201.301 99.7733 201.461 99.68C201.621 99.58 201.768 99.53 201.901 99.53C202.074 99.53 202.208 99.5967 202.301 99.73L202.911 100.52C202.658 100.82 202.371 101.073 202.051 101.28C201.731 101.487 201.391 101.657 201.031 101.79C200.671 101.917 200.301 102.007 199.921 102.06C199.541 102.12 199.171 102.15 198.811 102.15C198.104 102.15 197.448 102.033 196.841 101.8C196.241 101.56 195.718 101.21 195.271 100.75C194.831 100.29 194.484 99.72 194.231 99.04C193.984 98.36 193.861 97.5767 193.861 96.69C193.861 95.9833 193.971 95.3233 194.191 94.71C194.418 94.0967 194.738 93.5633 195.151 93.11C195.571 92.6567 196.078 92.3 196.671 92.04C197.271 91.7733 197.948 91.64 198.701 91.64C199.328 91.64 199.908 91.7433 200.441 91.95C200.974 92.15 201.434 92.4467 201.821 92.84C202.208 93.2333 202.508 93.7167 202.721 94.29C202.941 94.8567 203.051 95.5033 203.051 96.23C203.051 96.5633 203.014 96.7867 202.941 96.9C202.868 97.0133 202.734 97.07 202.541 97.07H195.991ZM211.566 94.31C211.266 93.9233 210.936 93.6533 210.576 93.5C210.216 93.3467 209.826 93.27 209.406 93.27C208.566 93.27 207.909 93.58 207.436 94.2C206.963 94.8133 206.726 95.7233 206.726 96.93C206.726 97.5567 206.779 98.0933 206.886 98.54C206.993 98.98 207.146 99.34 207.346 99.62C207.546 99.9 207.789 100.103 208.076 100.23C208.363 100.357 208.686 100.42 209.046 100.42C209.593 100.42 210.063 100.303 210.456 100.07C210.856 99.83 211.226 99.4933 211.566 99.06V94.31ZM213.716 87.2V102H212.416C212.129 102 211.946 101.863 211.866 101.59L211.676 100.48C211.249 100.98 210.763 101.383 210.216 101.69C209.676 101.997 209.046 102.15 208.326 102.15C207.753 102.15 207.233 102.037 206.766 101.81C206.299 101.577 205.899 101.24 205.566 100.8C205.233 100.36 204.973 99.8167 204.786 99.17C204.606 98.5167 204.516 97.77 204.516 96.93C204.516 96.17 204.616 95.4667 204.816 94.82C205.023 94.1733 205.316 93.6133 205.696 93.14C206.076 92.66 206.536 92.2867 207.076 92.02C207.623 91.7467 208.233 91.61 208.906 91.61C209.506 91.61 210.016 91.7067 210.436 91.9C210.856 92.0867 211.233 92.35 211.566 92.69V87.2H213.716Z" fill="white"/>
</g>
<defs>
<filter id="filter0_d" x="0.0546875" y="0" width="291.872" height="132.206" filterUnits="userSpaceOnUse" color-interpolation-filters="sRGB">
<feFlood flood-opacity="0" result="BackgroundImageFix"/>
<feColorMatrix in="SourceAlpha" type="matrix" values="0 0 0 0 0 0 0 0 0 0 0 0 0 0 0 0 0 0 127 0"/>
<feOffset dy="3"/>
<feGaussianBlur stdDeviation="5"/>
<feColorMatrix type="matrix" values="0 0 0 0 0 0 0 0 0 0 0 0 0 0 0 0 0 0 0.06 0"/>
<feBlend mode="normal" in2="BackgroundImageFix" result="effect1_dropShadow"/>
<feBlend mode="normal" in="SourceGraphic" in2="effect1_dropShadow" result="shape"/>
</filter>
<clipPath id="clip0">
<rect width="271.872" height="112.206" fill="white" transform="translate(10.0547 7)"/>
</clipPath>
</defs>
</svg>
